<?xml version="1.0" encoding="utf-8"?>
<!-- Generator: Adobe Illustrator 16.0.3, SVG Export Plug-In . SVG Version: 6.00 Build 0)  -->
<!DOCTYPE svg PUBLIC "-//W3C//DTD SVG 1.1//EN" "http://www.w3.org/Graphics/SVG/1.1/DTD/svg11.dtd">
<svg version="1.1" id="Capa_1" xmlns="http://www.w3.org/2000/svg" xmlns:xlink="http://www.w3.org/1999/xlink" x="0px" y="0px"
	 width="200px" height="200px" viewBox="0 0 200 200" enable-background="new 0 0 200 200" xml:space="preserve">
<circle fill="#C1272D" cx="100" cy="100" r="100"/>
<path fill="#FFFFFF" d="M168.163,61.279l-12.513-9.898c0,0-16.105,10.824-30.282,24.18c-9.992,9.412-19.512,19.536-24.669,25.224
	c-6.025,6.65-13.422,13.592-20.902,23.048c-9.842,12.443-17.698,25.752-17.698,25.752l-17.767-28.106l-12.626,6.795l29.014,45.147
	c0,0,13.389-19.606,29.628-39.566c7.654-9.411,15.244-16.23,20.578-21.974c5.319-5.729,15.073-15.899,25.349-25.416
	C151.189,72.654,168.163,61.279,168.163,61.279z"/>
</svg>
