<?xml version="1.0" encoding="utf-8"?>
<!-- Generator: Adobe Illustrator 16.0.3, SVG Export Plug-In . SVG Version: 6.00 Build 0)  -->
<!DOCTYPE svg PUBLIC "-//W3C//DTD SVG 1.1//EN" "http://www.w3.org/Graphics/SVG/1.1/DTD/svg11.dtd">
<svg version="1.1" id="Capa_1" xmlns="http://www.w3.org/2000/svg" xmlns:xlink="http://www.w3.org/1999/xlink" x="0px" y="0px"
	 width="200px" height="200px" viewBox="0 0 200 200" enable-background="new 0 0 200 200" xml:space="preserve">
<circle fill="#276023" cx="100" cy="100" r="100"/>
<path fill="#FFFFFF" d="M130.631,133c11.512,0,20.671-3.697,27.476-10.186c6.806-6.494,10.205-15.454,10.205-26.439
	c0-10.375-3.272-19.046-9.823-25.795c-6.551-6.745-14.883-10.172-24.916-10.172c-3.477,0-10.127,0.539-14.127,1.656v11.943
	c3-0.955,6.604-1.527,7.529-1.707c1.023-0.197,2.349-0.298,3.938-0.298c6.864,0,12.469,2.286,16.795,6.849
	c4.329,4.569,6.497,10.45,6.497,17.644c0,6.374-1.917,11.731-5.759,16.069c-1.229,1.375-2.584,2.538-4.07,3.482
	c-1.484,0.944-3.24,0.647-5.262,1.188c-2.022,0.534-6.055-0.232-12.098-0.232h-11.57V22h-13v111H130.631z"/>
<path fill="#FFFFFF" d="M69.475,69C57.962,69,48.804,72.688,42,79.179c-6.806,6.492-10.206,15.449-10.206,26.436
	c0,10.374,3.273,19.043,9.824,25.793c6.551,6.744,14.775,10.17,24.809,10.17c3.475,0,8.019-0.539,14.019-1.656v-11.941
	c-3,0.954-6.497,1.526-7.422,1.704c-1.023,0.197-2.295,0.3-3.884,0.3c-6.864,0-12.441-2.286-16.769-6.849
	c-4.329-4.569-6.484-10.451-6.484-17.644c0-6.375,1.923-11.732,5.765-16.069c1.229-1.375,2.588-2.538,4.075-3.482
	c1.484-0.945,3.24-1.139,5.262-1.679C63.013,83.726,67.046,84,73.089,84h11.356v96h13V69H69.475z"/>
</svg>
