<?xml version="1.0" encoding="utf-8"?>
<!-- Generator: Adobe Illustrator 24.0.2, SVG Export Plug-In . SVG Version: 6.00 Build 0)  -->
<svg version="1.0" id="Layer_1" xmlns="http://www.w3.org/2000/svg" xmlns:xlink="http://www.w3.org/1999/xlink" x="0px" y="0px"
	 viewBox="0 0 612 792" style="enable-background:new 0 0 612 792;" xml:space="preserve">
<style type="text/css">
	.st0{fill:#FEFEFE;}
	.st1{fill:#B3B3B3;}
</style>
<g>
	<path class="st0" d="M305.94,545.89c-48.63,0-97.27-0.05-145.9,0.11c-3.55,0.01-4.02-0.88-4.02-4.17
		c0.11-97.27,0.11-194.53-0.02-291.8c0-3.55,0.88-4.02,4.16-4.02c97.27,0.11,194.53,0.11,291.8-0.02c3.55,0,4.02,0.88,4.02,4.16
		c-0.11,97.27-0.11,194.53,0.02,291.8c0,3.55-0.88,4.03-4.16,4.02C403.2,545.86,354.57,545.89,305.94,545.89z M305.26,330.04
		c37.96,0,75.92,0.01,113.88-0.02c1.98,0,3.94,0.13,5.93-0.45c11.35-3.26,18.57-13.58,16.73-24.88
		c-1.74-10.67-10.86-18.73-22.92-18.71c-75.58,0.16-151.17,0.08-226.75,0.08c-13.44,0-23.05,9.24-23.03,22.11
		c0.02,12.54,9.72,21.85,22.79,21.85C229.67,330.05,267.47,330.04,305.26,330.04z M305.74,376.01c-38.29,0-76.58,0.02-114.88-0.02
		c-6.6-0.01-12.22,2.53-16.27,7.34c-5.99,7.13-7.64,15.4-3.35,24.14c4.23,8.61,11.33,12.54,20.89,12.54
		c75.58-0.04,151.17-0.02,226.75-0.02c13.51,0,23.03-9.16,23.01-22.11c-0.02-12.54-9.72-21.85-22.79-21.85
		C381.33,376.01,343.53,376.01,305.74,376.01z M305.58,511.92c38.28,0,76.56,0.02,114.83-0.01c11.45-0.01,21.43-10.1,21.5-21.55
		c0.07-12.06-9.55-22.38-21.15-22.39c-76.89-0.04-153.78-0.02-230.67-0.02c-6,0-11.28,2.57-14.96,6.77c-6,6.85-8.3,14.96-4.16,23.9
		c4.11,8.86,11.07,13.28,20.77,13.28C229.69,511.94,267.63,511.92,305.58,511.92z"/>
	<path class="st1" d="M305.26,330.04c-37.79,0-75.58,0-113.38,0c-13.07,0-22.77-9.31-22.79-21.85
		c-0.02-12.87,9.59-22.11,23.03-22.11c75.58,0,151.17,0.08,226.75-0.08c12.05-0.03,21.17,8.04,22.92,18.71
		c1.85,11.3-5.38,21.62-16.73,24.88c-1.99,0.57-3.95,0.44-5.93,0.45C381.18,330.05,343.22,330.04,305.26,330.04z"/>
	<path class="st1" d="M305.74,376.01c37.79,0,75.58,0,113.38,0c13.06,0,22.77,9.32,22.79,21.85c0.02,12.95-9.51,22.11-23.01,22.11
		c-75.58,0-151.17-0.02-226.75,0.02c-9.56,0-16.65-3.93-20.89-12.54c-4.3-8.73-2.64-17.01,3.35-24.14
		c4.04-4.82,9.67-7.35,16.27-7.34C229.16,376.04,267.45,376.01,305.74,376.01z"/>
	<path class="st1" d="M305.58,511.92c-37.95,0-75.89,0.02-113.84-0.01c-9.7-0.01-16.66-4.43-20.77-13.28
		c-4.15-8.94-1.84-17.05,4.16-23.9c3.68-4.2,8.97-6.77,14.96-6.77c76.89-0.01,153.78-0.02,230.67,0.02
		c11.6,0.01,21.22,10.33,21.15,22.39c-0.06,11.45-10.05,21.54-21.5,21.55C382.13,511.94,343.85,511.92,305.58,511.92z"/>
</g>
</svg>
